<svg class="bob" font-family="arial" font-size="14" height="496" width="712" xmlns="http://www.w3.org/2000/svg">
<defs>
<marker id="triangle" markerHeight="8" markerWidth="8" orient="auto" refX="4" refY="2" viewBox="0 0 8 4">
<polygon class="fg_fill" points="0,0 0,4 8,2 0,0"/>
</marker>
<marker id="clear_triangle" markerHeight="10" markerWidth="10" orient="auto" refX="1" refY="7" viewBox="0 0 20 14">
<polygon class="bg_fill fg_stroke" points="2,2 2,12 18,7 2,2"/>
</marker>
<marker id="circle" markerHeight="5" markerWidth="5" orient="auto" refX="10" refY="10" viewBox="0 0 20 20">
<circle class="fg_fill" cx="10" cy="10" r="8"/>
</marker>
<marker id="square" markerHeight="5" markerWidth="5" orient="auto" refX="10" refY="10" viewBox="0 0 20 20">
<rect class="fg_fill" height="20" width="20" x="0" y="0"/>
</marker>
<marker id="open_circle" markerHeight="10" markerWidth="10" orient="auto" refX="10" refY="10" viewBox="0 0 20 20">
<circle class="bg_fill fg_stroke" cx="10" cy="10" r="4"/>
</marker>
<marker id="big_open_circle" markerHeight="20" markerWidth="20" orient="auto" refX="20" refY="20" viewBox="0 0 40 40">
<circle class="bg_fill fg_stroke" cx="20" cy="20" r="6"/>
</marker>
</defs>
<style type="text/css">

rect.backdrop {
    fill: white;
}

.fg_fill {
    fill: black;
}


.bg_fill {
    fill: white;
}

.fg_stroke {
    stroke: black;
    stroke-width: 2;
}

.no_fill {
    fill: none;
}

.dashed {
    stroke-dasharray: 5;
}


text{
    fill: black;
}

line, path {
    stroke-linecap: round;
    stroke-linejoin: miter;
    stroke-opacity: 1;
    fill-opacity: 1;
}




tspan.head{
    fill: none;
    stroke: none;
}
    
</style>
<rect class="backdrop" height="496" width="712" x="0" y="0"/>
<g>
<line class="fg_stroke" marker-end="url(#triangle)" x1="8" x2="4" y1="152" y2="152"/>
<line class="fg_stroke" x1="8" x2="100" y1="152" y2="152"/>
<line class="fg_stroke" x1="100" x2="100" y1="88" y2="152"/>
<line class="fg_stroke" x1="100" x2="396" y1="88" y2="88"/>
<line class="fg_stroke" x1="100" x2="100" y1="152" y2="216"/>
<line class="fg_stroke" x1="100" x2="396" y1="216" y2="216"/>
<line class="fg_stroke" x1="396" x2="396" y1="88" y2="184"/>
<line class="fg_stroke" x1="396" x2="396" y1="184" y2="216"/>
<line class="fg_stroke" x1="396" x2="508" y1="184" y2="184"/>
</g>
<g>
<line class="fg_stroke" marker-end="url(#triangle)" x1="16" x2="12" y1="376" y2="376"/>
<line class="fg_stroke" x1="16" x2="100" y1="376" y2="376"/>
<line class="fg_stroke" x1="100" x2="100" y1="312" y2="376"/>
<line class="fg_stroke" x1="100" x2="396" y1="312" y2="312"/>
<line class="fg_stroke" x1="100" x2="100" y1="376" y2="440"/>
<line class="fg_stroke" x1="100" x2="396" y1="440" y2="440"/>
<line class="fg_stroke" x1="396" x2="396" y1="312" y2="408"/>
<line class="fg_stroke" x1="396" x2="396" y1="408" y2="440"/>
<line class="fg_stroke" x1="396" x2="508" y1="408" y2="408"/>
</g>
<g>
<line class="fg_stroke" x1="36" x2="36" y1="88" y2="144"/>
<line class="fg_stroke" x1="36" x2="76" y1="88" y2="88"/>
<line class="fg_stroke" x1="76" x2="76" y1="24" y2="88"/>
<line class="fg_stroke" x1="76" x2="452" y1="24" y2="24"/>
<line class="fg_stroke" x1="76" x2="76" y1="88" y2="144"/>
<line class="fg_stroke" x1="452" x2="452" y1="24" y2="88"/>
<line class="fg_stroke" x1="452" x2="452" y1="88" y2="112"/>
<line class="fg_stroke" x1="452" x2="492" y1="88" y2="88"/>
<line class="fg_stroke" x1="492" x2="492" y1="88" y2="112"/>
</g>
<g>
<line class="fg_stroke" x1="36" x2="36" y1="160" y2="368"/>
</g>
<g>
<line class="fg_stroke" x1="36" x2="36" y1="384" y2="440"/>
<line class="fg_stroke" x1="36" x2="76" y1="440" y2="440"/>
<line class="fg_stroke" x1="76" x2="76" y1="384" y2="440"/>
<line class="fg_stroke" x1="76" x2="76" y1="440" y2="488"/>
<line class="fg_stroke" x1="76" x2="452" y1="488" y2="488"/>
<line class="fg_stroke" x1="452" x2="452" y1="440" y2="488"/>
<line class="fg_stroke" x1="452" x2="492" y1="440" y2="440"/>
<line class="fg_stroke" x1="492" x2="492" y1="416" y2="440"/>
</g>
<g>
<line class="fg_stroke" x1="76" x2="76" y1="12" y2="24"/>
<path class="fg_stroke no_fill" d="M 80 8 A 4 4 0 0 0 76 12"/>
</g>
<g>
<line class="fg_stroke" x1="76" x2="76" y1="160" y2="368"/>
</g>
<g>
<line class="fg_stroke" x1="84" x2="80" y1="8" y2="8"/>
<line class="fg_stroke" x1="84" x2="104" y1="8" y2="8"/>
</g>
<g>
<line class="fg_stroke" x1="100" x2="100" y1="76" y2="88"/>
<path class="fg_stroke no_fill" d="M 104 72 A 4 4 0 0 0 100 76"/>
</g>
<g>
<line class="fg_stroke" x1="100" x2="100" y1="300" y2="312"/>
<path class="fg_stroke no_fill" d="M 104 296 A 4 4 0 0 0 100 300"/>
</g>
<g>
<line class="fg_stroke" x1="108" x2="104" y1="72" y2="72"/>
<line class="fg_stroke" x1="108" x2="128" y1="72" y2="72"/>
</g>
<g>
<line class="fg_stroke" x1="108" x2="104" y1="296" y2="296"/>
<line class="fg_stroke" x1="108" x2="128" y1="296" y2="296"/>
</g>
<g>
<line class="fg_stroke" marker-end="url(#triangle)" x1="408" x2="404" y1="120" y2="120"/>
<line class="fg_stroke" marker-end="url(#triangle)" x1="408" x2="532" y1="120" y2="120"/>
</g>
<g>
<line class="fg_stroke" marker-end="url(#triangle)" x1="408" x2="404" y1="344" y2="344"/>
<line class="fg_stroke" marker-end="url(#triangle)" x1="408" x2="532" y1="344" y2="344"/>
</g>
<g>
<line class="fg_stroke" x1="452" x2="452" y1="128" y2="176"/>
</g>
<g>
<line class="fg_stroke" x1="452" x2="452" y1="192" y2="336"/>
</g>
<g>
<line class="fg_stroke" x1="452" x2="452" y1="352" y2="400"/>
</g>
<g>
<line class="fg_stroke" x1="452" x2="452" y1="416" y2="440"/>
</g>
<g>
<line class="fg_stroke" x1="492" x2="492" y1="128" y2="176"/>
</g>
<g>
<line class="fg_stroke" x1="492" x2="492" y1="192" y2="336"/>
</g>
<g>
<line class="fg_stroke" x1="492" x2="492" y1="352" y2="400"/>
</g>
<g>
<line class="fg_stroke" x1="508" x2="508" y1="176" y2="192"/>
</g>
<g>
<line class="fg_stroke" x1="508" x2="508" y1="400" y2="416"/>
</g>
<g>
<line class="fg_stroke" x1="540" x2="540" y1="76" y2="88"/>
<line class="fg_stroke" x1="540" x2="540" y1="88" y2="440"/>
<line class="fg_stroke" x1="540" x2="708" y1="88" y2="88"/>
<line class="fg_stroke" x1="540" x2="708" y1="440" y2="440"/>
<line class="fg_stroke" x1="708" x2="708" y1="88" y2="440"/>
<path class="fg_stroke no_fill" d="M 544 72 A 4 4 0 0 0 540 76"/>
</g>
<g>
<line class="fg_stroke" x1="548" x2="544" y1="72" y2="72"/>
<line class="fg_stroke" x1="548" x2="568" y1="72" y2="72"/>
</g>
<g>
<line class="fg_stroke" x1="592" x2="600" y1="352" y2="336"/>
</g>
<g>
<text class="fg_fill" x="41" y="460">
NAT
</text>
</g>
<g>
<text class="fg_fill" x="41" y="476">
Net
</text>
</g>
<g>
<text class="fg_fill" x="105" y="12">
Virtualbox
</text>
</g>
<g>
<text class="fg_fill" x="113" y="124">
bolt://graphy@192.168.50.10:7687
</text>
</g>
<g>
<text class="fg_fill" x="113" y="172">
neo4j
</text>
</g>
<g>
<text class="fg_fill" x="113" y="188">
http://192.168.50.10:7474/
</text>
</g>
<g>
<text class="fg_fill" x="113" y="348">
bolt://graphy@192.168.50.11:7687
</text>
</g>
<g>
<text class="fg_fill" x="113" y="396">
neo4j
</text>
</g>
<g>
<text class="fg_fill" x="113" y="412">
http://192.168.50.11:7474/
</text>
</g>
<g>
<text class="fg_fill" x="129" y="76">
neo4j-app
</text>
</g>
<g>
<text class="fg_fill" x="129" y="300">
neo4j-data
</text>
</g>
<g>
<text class="fg_fill" x="161" y="172">
Browser
</text>
</g>
<g>
<text class="fg_fill" x="161" y="396">
Browser
</text>
</g>
<g>
<text class="fg_fill" x="209" y="76">
VM
</text>
</g>
<g>
<text class="fg_fill" x="217" y="300">
VM
</text>
</g>
<g>
<text class="fg_fill" x="457" y="460">
Host
</text>
</g>
<g>
<text class="fg_fill" x="457" y="476">
Net
</text>
</g>
<g>
<text class="fg_fill" x="553" y="124">
graphileon
</text>
</g>
<g>
<text class="fg_fill" x="553" y="140">
appadata
</text>
</g>
<g>
<text class="fg_fill" x="553" y="348">
user
</text>
</g>
<g>
<text class="fg_fill" x="553" y="364">
data
</text>
</g>
<g>
<text class="fg_fill" x="569" y="76">
Graphileon
</text>
</g>
<g>
<text class="fg_fill" x="609" y="348">
service
</text>
</g>
<g>
<text class="fg_fill" x="625" y="140">
and
</text>
</g>
<g>
<text class="fg_fill" x="657" y="76">
App
</text>
</g>
<g>
<text class="fg_fill" x="657" y="140">
logic
</text>
</g>
</svg>